# xmcd
#
# Track frame offsets:
#	150
#	24871
#	48819
#	63526
#	77634
#	92082
#	106476
#	122430
#	138149
#	156026
#	170218
#	186758
#	197446
#	211713
#	223660
#	238517
#	252624
#
# Disc length: 3540 seconds
#
# Revision: 1
# Processed by: cddbd v1.5.2PL0 Copyright (c) Steve Scherf et al.
# Submitted via: audiograbber 1.83.01
#
DISCID=e10dd211
DTITLE=Various Artist - COUNTRY JAN 2016
DYEAR=2016
DGENRE=Country
TTITLE0=JUSTIN TIMBERLAKE - DRINK YOU AWAY
TTITLE1=MR MISUNDERSTOOD - ERIC CHURCH
TTITLE2=CONFESSION - FLORIDA GEORGIA LINE
TTITLE3=ARE YOU READY FOR THE COUNTRY - HANK WILLIAMS JR
TTITLE4=LIKE NEW - CHIP ESTEN
TTITLE5=HOME ALONE TONIGHT - LUKE BRYAN
TTITLE6=SOMETHING MORE THAN FREE - JASON ISBELL
TTITLE7=BREAK UP WITH HIM - OLD DOMINION
TTITLE8=IT ALL STARTED WITH BEER - FRANKIE BALLARD
TTITLE9=FIX - CHRIS LANE
TTITLE10=WORDS CAN BREAK YOUR HEART - DON HENLEY
TTITLE11=NOBODY TO BLAME - CHRIS STAPLETON
TTITLE12=YOU LOOK LIKE I NEED A DRINK - JUSTIN MOORE
TTITLE13=BREAK ON ME - KEITH URBAN
TTITLE14=BEAUTIFUL STRANGER - TOBY KEITH
TTITLE15=DAMN GOOD TIME - TYLER DIAL
TTITLE16=DRUNK ON YOUR LOVE - BRETT ELDREDGE
EXTD=
EXTT0=
EXTT1=
EXTT2=
EXTT3=
EXTT4=
EXTT5=
EXTT6=
EXTT7=
EXTT8=
EXTT9=
EXTT10=
EXTT11=
EXTT12=
EXTT13=
EXTT14=
EXTT15=
EXTT16=
PLAYORDER=
